<?xml version="1.0" encoding="UTF-8"?>
<!DOCTYPE svg PUBLIC "-//W3C//DTD SVG 1.1//EN" "http://www.w3.org/Graphics/SVG/1.1/DTD/svg11.dtd">
<!-- Creator: CorelDRAW X8 -->
<svg xmlns="http://www.w3.org/2000/svg" xml:space="preserve" width="11.5164mm" height="9.2874mm" version="1.1" style="shape-rendering:geometricPrecision; text-rendering:geometricPrecision; image-rendering:optimizeQuality; fill-rule:evenodd; clip-rule:evenodd"
viewBox="0 0 1047 844"
 xmlns:xlink="http://www.w3.org/1999/xlink">
 <defs>
  <style type="text/css">
   <![CDATA[
    .str0 {stroke:black;stroke-width:6.13435}
    .fil0 {fill:#FEFEFE;fill-rule:nonzero}
   ]]>
  </style>
 </defs>
 <g id="Layer_x0020_1">
  <metadata id="CorelCorpID_0Corel-Layer"/>
  <g id="_1769456072">
   <polygon class="fil0" points="307,0 1023,268 1005,317 400,92 79,326 2,219 307,0 "/>
   <polygon class="fil0" points="321,415 367,415 367,360 321,360 "/>
   <path class="fil0" d="M0 844l329 0 50 -199 -333 0 -46 199zm75 -97l-16 -83 29 0 8 53 32 -53 27 0 -54 83 -9 44 -27 0 10 -44zm70 4c-3,10 -6,26 5,26 9,0 13,-8 14,-16l25 0c-2,10 -7,18 -14,23 -7,6 -16,9 -28,9 -32,0 -32,-20 -26,-48 5,-24 13,-45 46,-45 33,0 32,22 25,51l-47 0zm25 -14c2,-9 5,-21 -7,-21 -11,0 -14,13 -15,21l22 0zm96 37c-1,6 -1,12 -2,17l-23 0 1 -12 0 0c-7,9 -15,14 -26,14 -17,0 -21,-13 -18,-29 7,-29 30,-30 53,-30l1 -7c2,-7 2,-13 -7,-13 -9,0 -11,7 -12,14l-25 0c2,-11 7,-18 14,-22 6,-4 15,-6 24,-6 32,0 33,14 30,30l-10 44zm-43 -11c-2,7 -2,14 6,14 15,0 17,-19 19,-29 -13,1 -22,-1 -25,15zm96 -61l-3 11 1 0c7,-10 16,-13 26,-13l-5 22c-22,-1 -25,12 -27,21l-10 48 -25 0 19 -89 24 0z"/>
   <polygon class="fil0" points="391,664 419,664 416,753 417,753 456,664 487,664 487,753 487,753 522,664 548,664 493,791 464,791 463,698 463,698 421,791 392,791 "/>
   <path class="fil0" d="M592 774c-1,6 -1,12 -2,17l-23 0 1 -12 0 0c-7,9 -15,14 -26,14 -17,0 -21,-13 -18,-29 7,-29 30,-30 53,-30l1 -7c2,-7 2,-13 -7,-13 -9,0 -11,7 -12,14l-25 0c3,-11 7,-18 14,-22 7,-4 15,-6 25,-6 31,0 32,14 29,30l-10 44zm-43 -11c-1,7 -2,14 6,14 15,0 17,-19 19,-29 -13,1 -22,-1 -25,15z"/>
   <path class="fil0" d="M647 702l-2 11 0 0c7,-10 16,-13 26,-13l-5 22c-21,-1 -24,12 -26,21l-10 48 -25 0 19 -89 23 0z"/>
   <path class="fil0" d="M704 702l-2 11 0 0c7,-10 16,-13 26,-13l-5 22c-21,-1 -24,12 -26,21l-10 48 -25 0 19 -89 23 0z"/>
   <path class="fil0" d="M786 774c-1,6 -2,12 -3,17l-23 0 2 -12 -1 0c-7,9 -15,14 -26,14 -17,0 -21,-13 -17,-29 6,-29 29,-30 52,-30l1 -7c2,-7 2,-13 -7,-13 -8,0 -11,7 -12,14l-24 0c2,-11 7,-18 13,-22 7,-4 15,-6 25,-6 31,0 33,14 29,30l-9 44zm-44 -11c-1,7 -2,14 6,14 15,0 17,-19 19,-29 -12,1 -21,-1 -25,15z"/>
   <path class="fil0" d="M838 711l0 0c3,-4 7,-7 11,-8 3,-2 8,-3 12,-3 12,0 21,7 18,20l-15 71 -25 0 13 -61c2,-8 2,-14 -6,-14 -8,0 -11,6 -12,14l-13 61 -25 0 19 -89 25 0 -2 9z"/>
   <path class="fil0" d="M891 702l10 0 3 -14 27 -11 -5 25 13 0 -3 15 -13 0 -10 48c-2,7 -3,11 5,11 2,0 3,0 5,0l-4 15c-3,0 -7,1 -13,1 -21,0 -21,-14 -20,-20l12 -55 -10 0 3 -15z"/>
   <polygon class="fil0" points="948,792 943,702 968,702 967,765 967,765 994,702 1018,702 958,825 932,825 "/>
   <path class="fil0" d="M673 359c21,-11 42,-25 57,-45l56 0 0 304 -63 0 0 -236c-15,12 -33,23 -50,33l0 -56z"/>
   <path class="fil0" d="M987 468c0,94 -6,154 -86,154 -81,0 -87,-60 -87,-154 0,-115 13,-153 87,-153 73,0 86,38 86,153zm-113 1c0,90 3,110 27,110 24,0 26,-20 26,-110 0,-92 -1,-110 -26,-110 -26,0 -27,18 -27,110z"/>
   <path class="fil0" d="M458 337l0 0c54,-4 30,-1 49,-1 55,0 71,37 71,109 0,88 -33,113 -101,113 -55,0 -90,-22 -88,-82l67 0c0,9 1,18 5,24 4,6 10,10 20,10 27,0 30,-20 30,-65 0,-22 2,-67 -28,-67 -20,0 -26,22 -26,37l-64 0 0 -192 173 0 0 51 -108 0 0 63z"/>
   <path class="fil0" d="M110 559l15 -13c32,-29 95,-95 95,-136 0,-26 -15,-37 -40,-37 -27,0 -46,12 -60,24l-5 -67c21,-10 49,-18 91,-18 53,0 93,27 93,85 0,60 -77,137 -95,155l-8 8 0 1 106 0 0 57 -192 0 0 -59z"/>
   <polygon class="fil0" points="599,415 644,415 644,360 599,360 "/>
   <path class="fil0 str0" d="M1015 837c16,0 29,-13 29,-29 0,-16 -13,-29 -29,-29 -16,0 -29,13 -29,29 0,16 13,29 29,29z"/>
   <path class="fil0" d="M1010 824l-8 0 0 -34 15 0c5,0 11,2 11,9 0,5 -2,8 -7,8l0 1c6,0 6,4 7,8 0,2 0,6 2,8l-8 0c-1,-3 -1,-6 -2,-9 0,-2 0,-4 -3,-4l-7 0 0 13zm0 -19l6 0c3,0 5,-2 5,-5 0,-3 -2,-4 -5,-4l-6 0 0 9z"/>
  </g>
 </g>
</svg>
