<?xml version="1.0" encoding="UTF-8"?>
<!DOCTYPE svg PUBLIC "-//W3C//DTD SVG 1.1//EN" "http://www.w3.org/Graphics/SVG/1.1/DTD/svg11.dtd">
<!-- Creator: CorelDRAW X8 -->
<svg xmlns="http://www.w3.org/2000/svg" xml:space="preserve" width="33.2782mm" height="15.3246mm" version="1.1" style="shape-rendering:geometricPrecision; text-rendering:geometricPrecision; image-rendering:optimizeQuality; fill-rule:evenodd; clip-rule:evenodd"
viewBox="0 0 765 352"
 xmlns:xlink="http://www.w3.org/1999/xlink">
 <defs>
  <style type="text/css">
   <![CDATA[
    .fil1 {fill:#FEFEFE}
    .fil0 {fill:#FEFEFE;fill-rule:nonzero}
   ]]>
  </style>
 </defs>
 <g id="Layer_x0020_1">
  <metadata id="CorelCorpID_0Corel-Layer"/>
  <g id="_1769451800">
   <g id="_2347909113968">
    <g>
     <path class="fil0" d="M281 203c47,-1 86,-35 95,-80l-51 0c-8,17 -24,30 -44,31l0 49zm199 -203c3,8 4,17 4,25 0,16 -4,31 -13,44 -9,13 -22,23 -40,29l-45 0 0 -29c16,0 28,-4 36,-12 7,-7 11,-17 11,-30 0,-11 -3,-20 -9,-27l56 0 0 0z"/>
     <path class="fil1" d="M435 106l49 96 0 1 -56 0 -42 -85 0 -12 49 0zm-154 -56c20,1 36,13 44,31l51 0c-9,-45 -48,-79 -95,-80l0 49z"/>
    </g>
    <g>
     <path class="fil0" d="M255 351c0,0 1,0 1,-1l0 -26c0,-1 0,-1 0,-1l16 0c14,0 24,-9 24,-23 0,-14 -10,-23 -24,-23l-28 0c-1,0 -1,1 -1,1l0 72c0,1 0,1 1,1l11 0zm16 -39l-15 0c0,0 0,-1 0,-1l0 -22c0,0 0,0 0,0l15 0c8,0 12,4 12,11 0,7 -4,12 -12,12l0 0zm96 39c1,0 1,-1 1,-1l-16 -30c9,-4 14,-11 14,-21 0,-13 -10,-22 -23,-22l-29 0c-1,0 -1,1 -1,1l0 72c0,1 0,1 1,1l11 0c0,0 1,0 1,-1l0 -28c0,-1 0,-1 1,-1l12 0 14 29c1,1 1,1 2,1l12 0 0 0zm-25 -41l-15 0c-1,0 -1,0 -1,-1l0 -20c0,0 0,0 1,0l15 0c7,0 12,4 12,10 0,7 -5,11 -12,11zm69 42c13,0 22,-6 26,-18 2,-4 2,-8 2,-20 0,-11 0,-16 -2,-20 -4,-12 -13,-18 -26,-18 -13,0 -22,6 -26,18 -2,4 -2,9 -2,20 0,12 0,16 2,20 4,12 13,18 26,18zm0 -11c-7,0 -12,-4 -14,-10 -1,-3 -1,-6 -1,-17 0,-10 0,-14 1,-17 2,-6 7,-9 14,-9 7,0 12,3 14,9 1,3 1,7 1,17 0,11 0,14 -1,17 -2,6 -7,10 -14,10zm40 2c3,5 11,9 19,9 16,0 26,-9 26,-26l0 -48c0,0 -1,-1 -2,-1l-10 0c-1,0 -1,1 -1,1l0 48c0,10 -5,15 -13,15 -4,0 -8,-3 -9,-5 -1,0 -2,0 -2,0l-8 6c-1,0 -1,1 0,1l0 0zm66 7c0,1 0,1 1,1l46 0c0,0 1,0 1,-1l0 -9c0,-1 -1,-1 -1,-1l-34 0c0,0 -1,-1 -1,-1l0 -19c0,0 1,0 1,0l28 0c1,0 2,-1 2,-2l0 -9c0,0 -1,-1 -2,-1l-28 0c0,0 -1,0 -1,-1l0 -18c0,0 1,0 1,0l34 0c0,0 1,-1 1,-1l0 -10c0,0 -1,-1 -1,-1l-46 0c-1,0 -1,1 -1,1l0 72zm66 -16c4,12 13,18 26,18 12,0 21,-6 25,-16 0,0 0,-1 -1,-1l-9 -4c-1,-1 -1,0 -1,0 -3,5 -7,10 -14,10 -7,0 -11,-4 -13,-10 -1,-3 -2,-6 -2,-17 0,-11 1,-14 2,-17 2,-6 6,-9 13,-9 7,0 11,4 14,9 0,1 0,1 1,1l9 -5c1,0 1,-1 1,-1 -4,-10 -13,-16 -25,-16 -13,0 -22,6 -26,18 -1,5 -2,8 -2,20 0,12 1,16 2,20l0 0zm93 17c1,0 1,0 1,-1l0 -61c0,0 0,0 1,0l19 0c1,0 1,-1 1,-1l0 -10c0,0 0,-1 -1,-1l-53 0c0,0 -1,1 -1,1l0 10c0,0 1,1 1,1l20 0c0,0 0,0 0,0l0 61c0,1 1,1 2,1l10 0 0 0zm61 1c19,0 28,-9 28,-23 0,-12 -8,-19 -22,-21l-4 -1c-10,-1 -14,-4 -14,-10 0,-5 5,-9 12,-9 6,0 12,1 18,5 0,1 1,1 1,0l6 -8c0,-1 0,-1 -1,-2 -6,-4 -14,-7 -24,-7 -15,0 -25,9 -25,22 0,13 8,19 23,21l4 1c10,1 13,5 13,10 0,6 -5,11 -14,11 -8,0 -15,-4 -20,-8 0,0 -1,0 -1,0l-7 8c-1,0 0,1 0,2 6,5 16,9 27,9l0 0z"/>
     <path class="fil0" d="M2 334c4,12 13,18 26,18 11,0 20,-6 25,-16 0,0 0,-1 -1,-1l-9 -4c-1,-1 -1,0 -2,0 -2,5 -6,10 -13,10 -7,0 -12,-4 -14,-10 -1,-3 -1,-6 -1,-17 0,-11 0,-14 1,-17 2,-6 7,-9 14,-9 7,0 11,4 13,9 1,1 1,1 2,1l9 -5c1,0 1,-1 1,-1 -5,-10 -14,-16 -25,-16 -13,0 -22,6 -26,18 -2,5 -2,8 -2,20 0,12 0,16 2,20l0 0zm68 0c3,12 13,18 25,18 12,0 21,-6 25,-16 0,0 0,-1 0,-1l-10 -4c0,-1 -1,0 -1,0 -2,5 -7,10 -14,10 -7,0 -11,-4 -13,-10 -1,-3 -1,-6 -1,-17 0,-11 0,-14 1,-17 2,-6 6,-9 13,-9 7,0 12,4 14,9 0,1 1,1 1,1l10 -5c0,0 0,-1 0,-1 -4,-10 -13,-16 -25,-16 -12,0 -22,6 -25,18 -2,5 -2,8 -2,20 0,12 0,16 2,20l0 0zm121 17c1,0 1,-1 1,-1l-16 -30c9,-4 15,-11 15,-21 0,-13 -10,-22 -24,-22l-29 0c0,0 -1,1 -1,1l0 72c0,1 1,1 1,1l11 0c1,0 1,0 1,-1l0 -28c0,-1 0,-1 1,-1l12 0 15 29c0,1 0,1 1,1l12 0 0 0zm-24 -41l-16 0c-1,0 -1,0 -1,-1l0 -20c0,0 0,0 1,0l16 0c6,0 11,4 11,10 0,7 -5,11 -11,11z"/>
    </g>
   </g>
  </g>
 </g>
</svg>
