<?xml version="1.0" encoding="UTF-8"?>
<!DOCTYPE svg PUBLIC "-//W3C//DTD SVG 1.1//EN" "http://www.w3.org/Graphics/SVG/1.1/DTD/svg11.dtd">
<!-- Creator: CorelDRAW X8 -->
<svg xmlns="http://www.w3.org/2000/svg" xml:space="preserve" width="29.496mm" height="7.7047mm" version="1.1" style="shape-rendering:geometricPrecision; text-rendering:geometricPrecision; image-rendering:optimizeQuality; fill-rule:evenodd; clip-rule:evenodd"
viewBox="0 0 605 158"
 xmlns:xlink="http://www.w3.org/1999/xlink">
 <defs>
  <style type="text/css">
   <![CDATA[
    .fil1 {fill:#51658D}
    .fil2 {fill:#51658D;fill-rule:nonzero}
    .fil0 {fill:#8B9E93;fill-rule:nonzero}
   ]]>
  </style>
 </defs>
 <g id="Layer_x0020_1">
  <metadata id="CorelCorpID_0Corel-Layer"/>
  <g id="_834520912">
   <g id="_2347947068080">
    <g>
     <path class="fil0" d="M0 157c36,-1 66,-27 74,-62l-40 0c-6,14 -19,23 -34,24l0 38zm154 -157c2,6 3,13 3,20 0,12 -4,23 -10,34 -7,10 -17,17 -32,22l-34 0 0 -22c13,-1 22,-4 28,-9 6,-6 9,-14 9,-24 0,-8 -3,-15 -7,-21l43 0 0 0z"/>
     <path class="fil1" d="M119 82l38 74 0 1 -43 0 -33 -65 0 -10 38 0 0 0zm-119 -43c15,1 28,10 34,24l40 0c-8,-35 -38,-61 -74,-62l0 38z"/>
    </g>
    <path class="fil2" d="M205 157c0,0 1,0 1,-1l0 -20c0,-1 0,-1 0,-1l12 0c11,0 19,-7 19,-18 0,-11 -8,-18 -19,-18l-21 0c-1,0 -1,0 -1,1l0 56c0,1 0,1 1,1l8 0 0 0zm13 -31l-12 0c0,0 0,0 0,-1l0 -16c0,-1 0,-1 0,-1l12 0c6,0 9,4 9,9 0,5 -3,9 -9,9zm75 31c0,0 1,-1 0,-1l-12 -24c7,-2 11,-8 11,-16 0,-10 -8,-17 -18,-17l-23 0c0,0 0,0 0,1l0 56c0,1 0,1 0,1l9 0c0,0 1,0 1,-1l0 -22c0,0 0,0 0,0l10 0 11 22c0,1 1,1 1,1l10 0 0 0zm-20 -32l-12 0c0,0 0,-1 0,-1l0 -15c0,-1 0,-1 0,-1l12 0c6,0 9,3 9,8 0,5 -3,9 -9,9l0 0zm54 33c10,0 18,-5 21,-14 1,-4 1,-7 1,-16 0,-9 0,-12 -1,-16 -3,-9 -11,-14 -21,-14 -10,0 -17,5 -20,14 -1,4 -2,7 -2,16 0,9 1,12 2,16 3,9 10,14 20,14zm0 -9c-5,0 -9,-3 -11,-8 0,-2 -1,-5 -1,-13 0,-8 1,-11 1,-13 2,-5 6,-8 11,-8 6,0 9,3 11,8 1,2 1,5 1,13 0,8 0,11 -1,13 -2,5 -5,8 -11,8zm31 2c3,4 9,7 15,7 13,0 20,-7 20,-21l0 -37c0,-1 0,-1 0,-1l-9 0c0,0 -1,0 -1,1l0 37c0,8 -3,12 -9,12 -4,0 -6,-2 -8,-4 0,0 -1,0 -1,0l-6 5c-1,0 -1,0 -1,1l0 0zm52 5c0,1 0,1 1,1l36 0c1,0 1,0 1,-1l0 -7c0,-1 0,-1 -1,-1l-27 0c0,0 0,0 0,-1l0 -14c0,-1 0,-1 0,-1l23 0c0,0 1,0 1,-1l0 -7c0,0 -1,-1 -1,-1l-23 0c0,0 0,0 0,0l0 -14c0,-1 0,-1 0,-1l27 0c1,0 1,0 1,-1l0 -7c0,-1 0,-1 -1,-1l-36 0c-1,0 -1,0 -1,1l0 56 0 0zm52 -12c3,9 11,14 20,14 10,0 17,-5 20,-13 0,0 0,0 -1,-1l-7 -3c0,0 -1,0 -1,0 -2,4 -5,8 -11,8 -5,0 -8,-3 -10,-8 -1,-2 -1,-4 -1,-13 0,-8 0,-11 1,-13 2,-5 5,-8 10,-8 6,0 9,4 11,8 0,0 1,0 1,0l7 -3c1,-1 1,-1 1,-1 -3,-8 -10,-13 -20,-13 -9,0 -17,5 -20,14 -1,4 -1,7 -1,16 0,9 0,12 1,16l0 0zm73 13c0,0 1,0 1,-1l0 -47c0,-1 0,-1 0,-1l15 0c1,0 1,0 1,-1l0 -7c0,-1 0,-1 -1,-1l-41 0c0,0 -1,0 -1,1l0 7c0,1 1,1 1,1l15 0c1,0 1,0 1,1l0 47c0,1 0,1 1,1l8 0 0 0zm48 1c14,0 22,-8 22,-18 0,-10 -7,-15 -18,-17l-3 0c-8,-1 -10,-4 -10,-8 0,-5 3,-8 9,-8 5,0 9,2 14,5 0,0 0,0 1,-1l4 -6c0,0 0,-1 0,-1 -5,-4 -12,-6 -19,-6 -12,0 -20,7 -20,18 0,9 7,15 18,16l3 1c8,1 10,3 10,8 0,4 -4,8 -10,8 -7,0 -12,-3 -16,-6 -1,-1 -1,-1 -1,0l-6 6c0,0 0,1 1,1 4,5 12,8 21,8l0 0z"/>
    <path class="fil2" d="M198 58c3,12 13,18 25,18 12,0 21,-6 25,-16 0,0 0,-1 0,-1l-10 -5c0,0 -1,0 -1,1 -2,5 -7,10 -14,10 -7,0 -11,-4 -13,-10 -1,-3 -1,-6 -1,-17 0,-11 0,-14 1,-17 2,-6 6,-10 13,-10 7,0 12,5 14,10 0,1 1,1 1,1l10 -5c0,0 0,-1 0,-1 -4,-10 -13,-16 -25,-16 -12,0 -22,6 -25,18 -2,5 -2,8 -2,20 0,12 0,15 2,20l0 0zm67 0c4,12 13,18 26,18 11,0 20,-6 25,-16 0,0 0,-1 -1,-1l-9 -5c-1,0 -1,0 -2,1 -2,5 -6,10 -13,10 -7,0 -12,-4 -14,-10 -1,-3 -1,-6 -1,-17 0,-11 0,-14 1,-17 2,-6 7,-10 14,-10 7,0 11,5 13,10 1,1 1,1 2,1l9 -5c1,0 1,-1 1,-1 -5,-10 -14,-16 -25,-16 -13,0 -22,6 -26,18 -1,5 -2,8 -2,20 0,12 1,15 2,20l0 0zm121 17c1,0 2,-1 1,-2l-15 -30c8,-3 14,-10 14,-20 0,-13 -10,-22 -24,-22l-28 0c-1,0 -1,1 -1,1l0 72c0,0 0,1 1,1l10 0c1,0 1,-1 1,-1l0 -28c0,-1 1,-1 1,-1l13 0 14 29c0,1 1,1 1,1l12 0 0 0zm-24 -41l-16 0c0,0 -1,-1 -1,-1l0 -20c0,0 1,0 1,0l16 0c7,0 11,4 11,10 0,6 -4,11 -11,11z"/>
   </g>
  </g>
 </g>
</svg>
