<?xml version="1.0" encoding="UTF-8"?>
<!DOCTYPE svg PUBLIC "-//W3C//DTD SVG 1.1//EN" "http://www.w3.org/Graphics/SVG/1.1/DTD/svg11.dtd">
<!-- Creator: CorelDRAW X8 -->
<svg xmlns="http://www.w3.org/2000/svg" xml:space="preserve" width="41.5341mm" height="21.18mm" version="1.1" style="shape-rendering:geometricPrecision; text-rendering:geometricPrecision; image-rendering:optimizeQuality; fill-rule:evenodd; clip-rule:evenodd"
viewBox="0 0 1378 703"
 xmlns:xlink="http://www.w3.org/1999/xlink">
 <defs>
  <style type="text/css">
   <![CDATA[
    .fil1 {fill:#4B4B4D}
    .fil0 {fill:#4B4B4D;fill-rule:nonzero}
   ]]>
  </style>
 </defs>
 <g id="Layer_x0020_1">
  <metadata id="CorelCorpID_0Corel-Layer"/>
  <g id="_1262143720">
   <polygon class="fil0" points="256,702 256,665 263,665 263,697 279,697 279,702 "/>
   <polygon id="1" class="fil0" points="300,702 300,665 307,665 307,702 "/>
   <polygon id="2" class="fil0" points="340,702 326,665 333,665 344,695 354,665 361,665 348,702 "/>
   <polygon id="3" class="fil0" points="381,702 381,665 387,665 387,702 "/>
   <polygon id="4" class="fil0" points="410,702 410,665 416,665 434,691 434,665 440,665 440,702 434,702 416,676 416,702 "/>
   <path id="5" class="fil0" d="M478 703c-3,0 -6,-1 -9,-3 -2,-1 -4,-4 -6,-6 -1,-3 -2,-7 -2,-10 0,-4 1,-7 2,-10 2,-3 4,-5 7,-7 2,-2 6,-2 10,-2 4,0 7,1 10,3 3,2 5,5 6,8l-8 0c0,-2 -1,-3 -3,-4 -1,-1 -3,-1 -5,-1 -4,0 -7,1 -9,3 -2,3 -3,6 -3,10 0,4 1,7 3,9 2,2 5,4 8,4 3,0 6,-1 8,-3 1,-2 2,-4 3,-7l-10 0 0 -5 16 0 0 20 -6 0 0 -5c-1,2 -3,3 -5,4 -2,1 -4,2 -7,2z"/>
   <polygon id="6" class="fil0" points="543,702 543,665 550,665 550,702 "/>
   <polygon id="7" class="fil0" points="572,702 572,665 578,665 596,691 596,665 602,665 602,702 596,702 578,676 578,702 "/>
   <polygon id="8" class="fil0" points="658,702 658,671 647,671 647,665 676,665 676,671 665,671 665,702 "/>
   <polygon id="9" class="fil0" points="696,702 696,665 702,665 702,680 719,680 719,665 725,665 725,702 719,702 719,686 702,686 702,702 "/>
   <polygon id="10" class="fil0" points="748,702 748,665 772,665 772,671 754,671 754,681 770,681 770,686 754,686 754,697 772,697 772,702 "/>
   <polygon id="11" class="fil0" points="818,702 818,665 826,665 838,688 849,665 857,665 857,702 850,702 850,677 840,697 835,697 825,677 825,702 "/>
   <path id="12" class="fil0" d="M896 703c-3,0 -6,-1 -9,-3 -3,-1 -5,-4 -7,-7 -1,-2 -2,-6 -2,-9 0,-4 1,-8 2,-10 2,-3 4,-5 7,-7 3,-2 6,-2 9,-2 4,0 7,0 10,2 3,2 5,4 6,7 2,2 3,6 3,10 0,3 -1,7 -3,9 -1,3 -3,6 -6,7 -3,2 -6,3 -10,3zm0 -6c4,0 7,-2 9,-4 2,-2 3,-5 3,-9 0,-4 -1,-8 -3,-10 -2,-2 -5,-3 -9,-3 -3,0 -6,1 -8,3 -2,2 -3,6 -3,10 0,4 1,7 3,9 2,2 5,4 8,4z"/>
   <polygon id="13" class="fil0" points="936,702 936,665 944,665 955,688 967,665 975,665 975,702 968,702 968,677 958,697 953,697 942,677 942,702 "/>
   <polygon id="14" class="fil0" points="997,702 997,665 1021,665 1021,671 1004,671 1004,681 1019,681 1019,686 1004,686 1004,697 1021,697 1021,702 "/>
   <polygon id="15" class="fil0" points="1042,702 1042,665 1049,665 1066,691 1066,665 1073,665 1073,702 1066,702 1049,676 1049,702 "/>
   <polygon id="16" class="fil0" points="1104,702 1104,671 1093,671 1093,665 1121,665 1121,671 1110,671 1110,702 "/>
   <g>
    <path class="fil1" d="M0 581l0 -120 26 0 38 76 38 -76 26 0 0 120 -22 0 0 -83 -33 66 -18 0 -33 -66 0 83 -22 0zm296 2c-12,0 -22,-3 -31,-8 -9,-5 -16,-13 -21,-22 -5,-9 -8,-20 -8,-32 0,-12 3,-23 8,-33 5,-9 12,-16 21,-21 9,-6 19,-8 31,-8 12,0 23,2 32,8 9,5 16,12 21,21 5,10 7,21 7,33 0,12 -2,23 -7,32 -5,9 -12,17 -21,22 -9,5 -20,8 -32,8zm0 -20c12,0 21,-4 28,-11 7,-8 10,-18 10,-31 0,-13 -3,-24 -10,-31 -7,-8 -16,-12 -28,-12 -11,0 -20,4 -27,12 -7,7 -10,18 -10,31 0,13 3,23 10,31 7,7 16,11 27,11zm169 18l0 -120 26 0 38 76 38 -76 26 0 0 120 -22 0 0 -83 -34 66 -17 0 -33 -66 0 83 -22 0zm240 0l0 -120 78 0 0 17 -56 0 0 33 51 0 0 17 -51 0 0 35 56 0 0 18 -78 0zm188 0l0 -120 22 0 57 84 0 -84 21 0 0 120 -21 0 -57 -85 0 85 -22 0zm241 0l0 -103 -35 0 0 -17 92 0 0 17 -35 0 0 103 -22 0zm202 2c-9,0 -17,-2 -24,-5 -6,-3 -12,-7 -16,-13 -3,-5 -5,-12 -6,-20l24 0c0,5 2,10 6,14 3,3 9,5 15,5 6,0 11,-1 14,-4 4,-3 5,-6 5,-11 0,-5 -1,-9 -4,-11 -3,-3 -7,-5 -12,-7 -5,-2 -11,-4 -16,-6 -10,-3 -17,-7 -21,-12 -5,-5 -8,-12 -8,-20 0,-7 2,-13 5,-18 4,-5 9,-9 15,-12 6,-3 13,-4 21,-4 8,0 15,1 21,4 6,3 11,7 14,12 4,5 5,11 6,18l-24 0c0,-4 -2,-8 -5,-11 -3,-3 -7,-5 -13,-5 -5,0 -9,1 -12,4 -3,2 -5,6 -5,10 0,4 2,8 4,10 3,2 6,4 10,6 5,1 10,3 15,5 6,2 12,4 16,7 5,3 9,7 12,11 3,5 5,10 5,17 0,7 -2,13 -5,18 -3,5 -8,10 -14,13 -7,3 -14,5 -23,5z"/>
    <path class="fil0" d="M312 377c0,-104 42,-198 110,-267 69,-68 163,-110 267,-110 104,0 198,42 266,110 68,69 111,163 111,267l-33 0c0,-95 -38,-181 -101,-244 -62,-62 -148,-101 -243,-101 -95,0 -181,39 -244,101 -62,63 -100,149 -100,244l-33 0zm360 0l0 -46 0 0c-6,-78 -62,-141 -137,-156l0 202 -32 0 0 -219 0 0 0 -19c83,1 154,52 185,124 31,-73 103,-124 187,-124l0 0 0 19 0 14 0 205 -33 0 0 -202c-75,14 -132,78 -137,156l-1 0 0 46 -32 0z"/>
   </g>
  </g>
 </g>
</svg>
